<svg xmlns="http://www.w3.org/2000/svg" viewBox="0 0 1255.94 985.54"><title>Vimi Bärli</title><path d="M416.34,700.12c-9.6,18.46-19,36.26-28.16,54.2s-20.33,35.13-26.82,54.48C356.42,823.57,354,839,349.94,854a189.86,189.86,0,0,1-7.09,19.95c-6.27,15.83-4.21,41.71,15.82,49.48,13.4,5.19,25.75,3.52,37.25-5.08,11.26-8.42,19.48-19.56,27.48-30.84C435.2,870.87,443,852,451.94,833.9c7.3-14.75,15.33-29,26.3-41.48,13.59-15.48,30.48-24.3,50.78-27a287.33,287.33,0,0,1,36.89-2.2q23.62-.11,47.25,0c16.21.07,32.33-1.45,48.49-2.23,15.78-.76,31.37,1.08,46.87,3.93,5.62,1,11.28,1.93,17,2.52,11,1.13,20.56,5.53,29.33,12a107.77,107.77,0,0,0,15.72,10.05c11,5.44,17.53,14.84,24,24.86,15.1,23.42,30.91,46.39,46.61,69.41a57.27,57.27,0,0,0,22.94,19.76c17.22,8.12,36.3,2.37,47.1-13.33A112.18,112.18,0,0,0,923.24,867c2.33-6,1-13.05.06-19.62-4.53-30.46-18.6-56.36-37.81-79.91-8.19-10-16-20.35-25.51-29.25-4.88-4.56-7.49-10.53-9-16.92-2.18-9.41-6.61-17.63-12.41-25.24-.72-.94-3-2.1-.15-3.5.81-.39-.23-1.29-.55-1.8a28.15,28.15,0,0,0-6.83-7.87c-7.74-5.82-11.72-13.91-14.56-22.82-.89-2.81-2.11-5.51-3.26-8.46l81.11-10q38.12-4.67,76.24-9.32,60.68-7.37,121.35-14.71,53.84-6.57,107.67-13.25c15.78-1.94,31.55-3.93,47.33-5.81,6.26-.75,9.68,2.56,8.89,9.1-1,8.37-2.49,16.68-3.86,25q-9.55,58.18-19.14,116.35-11.68,71-23.33,142.08-7.21,44-14.33,88a6.85,6.85,0,0,1-5.72,6.06,19.94,19.94,0,0,1-4.46.38q-585,0-1169.94,0c-7,0-9.66-2.7-9.8-9.66q-.67-32.36-1.49-64.71C3.41,896.45,3,881.74,2.64,867q-.76-30.29-1.5-60.58C.77,792,.32,777.54,0,763.08-.19,751.3.16,751,11.85,749.57Q74.92,741.78,138,734q58.29-7.16,116.6-14.25L383.34,704C394.06,702.74,404.78,701.5,416.34,700.12Z"/><path d="M348,889c-.57-3.9.55-8.31,2.64-12.75,6.3-13.39,9.43-27.79,12.26-42.18,4.37-22.3,13.85-42.44,24.7-62.14q22.6-41,43.21-83.09c6.65-13.49,12.79-27.49,22.27-39.19,7.59-9.36,12-19.92,14.65-31,3.36-13.87,6.88-27.72,9.89-41.68.52-2.4.92-4.71,4.06-4.87,2-.1,1.77-1.78,2-3,3.51-16.67,6.08-33.5,8.31-50.38a85.09,85.09,0,0,0-3.61-37.6c-7.16-22.26-21.64-39.25-40.4-52.27q-27.44-19-53.8-39.48A134,134,0,0,1,352.58,336c-4.35-10.1-5.47-20.68-1.92-31.34,5-15.13,17.72-21.71,33-17.22,13,3.81,24.22,11,34.6,19.47,16,13,30.87,27.42,47.09,40.22,12.83,10.13,26.08,19.65,41.49,25.46,12.55,4.74,24.74,3.75,35.63-4.7,6.94-5.38,9.55-13.16,10.59-21.51,2-15.81-3.06-30.22-9.08-44.43-5.37-12.66-14.05-22.53-24.09-31.85-15.63-14.52-26.11-32.71-33.76-52.61-5.21-13.56-6.51-27.73-7.69-42-.75-9-1.9-18-5.63-26.46-1.45-3.28-3.49-5-7.12-5.49-5.05-.66-10-2-15.06-2.75A38.85,38.85,0,0,1,424,125.22c-2.62-3.46-5.58-6.66-8.33-10-4.58-5.59-6.54-12-7-19.25-.95-13.7,3.43-25.31,11.82-36,7.87-10,15.44-20.09,25.6-28C463.42,18.36,482,17.73,501.63,25.7a65.42,65.42,0,0,1,18.66,11.43c6.12,5.37,13,6.7,20.49,3.71,18-7.22,37-8.52,56-10,19.32-1.5,38.64-3,57.94-4.8,19-1.78,37.71-1.58,55.91,5.67,11.2,4.46,23.23,6.44,34.87,9.61,2.47.67,3.3-.61,4.4-2.27,7.2-10.88,15.7-20.55,26.46-28.09,8.43-5.91,17.81-8.72,28-10.35C825.14-2.73,840.76,8,856.17,18.89,868.1,27.33,876.1,39,879,53.68a45.46,45.46,0,0,1,.45,10.75c-.79,18.42-7.13,34.23-20.62,47.24-10,9.65-20.32,18.73-32.85,25a54.31,54.31,0,0,1-18.36,5.87c-2.91.31-4.05,1.85-5,4.06A53.13,53.13,0,0,0,798.13,165a67.16,67.16,0,0,1-7.38,27.49c-6.87,13-11.63,27-19.52,39.44-2.9,4.58-6.59,8.44-10.25,12.3-11.82,12.5-18.92,27.63-24.77,43.48a202.48,202.48,0,0,0-12.69,59.63c-1.17,22.35,10.29,37.88,33.52,39.75,20.94,1.68,38.46-6.26,54-19.36s29.85-27.46,45.91-39.88c9.35-7.23,18.14-15.24,28.63-20.88,9.55-5.13,19.71-7.53,30.6-6.12a9.37,9.37,0,0,1,6.7,4.21c11.47,16.52,10.92,33.53,1.66,50.65-7.65,14.14-19.43,24.53-32.2,33.85-11.36,8.3-23.63,15.16-35.82,22.15-17.21,9.87-32.71,22.26-48.54,34.13-9,6.74-17.46,14-24.54,22.82-8.93,11.09-14.72,23.37-12,37.9,2.16,11.43,1.27,23.09,3.55,34.44,2.52,12.58,6.43,24.79,10.38,37,1.43,4.41,4.86,7.75,7.21,11.68a7.24,7.24,0,0,1,1.29,4.83,16,16,0,0,0,1.4,8.71,37.34,37.34,0,0,1,3,16.76c-.64,23.81,7.16,44.71,21.15,63.62,4.29,5.79,8.27,11.81,12.66,17.52a70.38,70.38,0,0,1,12.61,26.41,35.31,35.31,0,0,0,10,16.8c18.21,18,33.93,37.91,46.1,60.36,9.56,17.64,15.88,36.5,15.32,57a6.85,6.85,0,0,1-.42,3.29c-3.89,7.36-7.37,14.91-11.92,21.95-9.25,14.28-30.94,15.41-42.31,5.87a96.65,96.65,0,0,1-18-19.83c-12.45-18.32-25-36.58-37.37-54.93-3.9-5.77-7.42-11.79-11.21-17.64A44.55,44.55,0,0,0,780,786c-8.15-4.81-16.15-9.83-23.86-15.34A58.82,58.82,0,0,0,728.57,760c-12.82-1.59-25.54-4-38.33-5.87-14.53-2.07-29.12-1-43.68-.25-8.7.42-17.38,1.27-26.08,1.35-20.12.2-40.25-.11-60.37.12a224.9,224.9,0,0,0-42.3,4.31c-20.15,4.1-35.59,15.42-48.38,31C456.16,806.75,447,825.24,438.21,844c-10.55,22.52-22.34,44.23-40.15,62.06-4.54,4.54-9.6,8.54-15.62,10.64-15.64,5.47-34.12-2.54-34.43-21.82C348,893.22,348,891.6,348,889Zm390.65-237.5a189.76,189.76,0,0,0,13.17-42.91c2.95-11.08,4.32-22.44,5.52-33.8,1.49-14.12,2.62-28.26,1.84-42.49.54-10.1-.76-20-1.86-30.08-2.51-23-7.57-45.19-16.89-66.32-10.62-24.07-25.77-44.58-48.3-59-2.25-1.44-4.36-3.25-7.16-3.66-3-2.7-6.82-4-10.46-5.47-19.19-7.89-39.26-10.37-59.83-9.21a84.45,84.45,0,0,0-28.57,6.46c-2.94,1.31-6,2.45-8.8,4-16.61,8.8-29.19,21.89-38.91,37.73-18.52,30.18-26.54,63.73-30.92,98.39a350.83,350.83,0,0,0-3.16,35.24c-1.21,24.16-1.46,48.31,2.38,72.26,2.94,18.28,8.68,35.69,18.52,51.56,14.57,25.06,36.07,41.37,63.48,50.19A141.89,141.89,0,0,0,627.23,721c11.06.39,22.2.88,33.17-1.49a84.17,84.17,0,0,0,31.78-11.26C714.62,695.08,728.68,675,738.66,651.53Z"/><path d="M380.74,588.79c-4.32,5.78-8.1,11.16-12.22,16.27-3.75,4.66-7.8,9.1-13.23,12-1.68.88-3.28,1.86-5.08.27-.26-.23-.75-.48-1-.38-4.73,1.69-5.84-2.31-7.57-5-6.81-10.42-8.49-22.07-8-34.25.61-15.55,4.19-30.75,5.3-46.22a90.35,90.35,0,0,0-.19-15.32c-.25-2.57-.94-2.33-2.61-1.18q-6.13,4.25-12.36,8.37c-10.15,6.72-20.84,10-32.87,4.76-2.28,10.81-2.52,21.5-2,32.18,1.05,22.5,5.77,44.6,7.57,67,1.11,13.85,1,27.61-2.51,41.2-.58,2.23-1.21,2.44-3.24,1.6-7.49-3.09-10.31-9.22-11.29-16.66-.94-7.11.12-14.16.79-21.2.89-9.36,0-18.68-.5-28a445.42,445.42,0,0,0-5.46-49.18c-4.4-25.75-11.49-50.61-23.35-74a2.62,2.62,0,0,1,.21-3c.88-1.36,1.81-2.69,2.65-4.08,2.53-4.13,4.6-4.4,7.56-.46,1.92,2.56,3.21,5.59,4.83,8.38.62,1.07,1.41,2.47,2.7,2.23,1.63-.31.9-2.15,1-3.18.44-5.35-.68-10.65-.78-16-.11-5.82.53-11.44,5.51-15.56,1.49-1.23,2.63-1.15,4.34-.45,6.86,2.8,6.26,8.94,6.4,14.48.2,8-.32,16-.24,23.93a68.51,68.51,0,0,0,2.61,19.51,7.31,7.31,0,0,0,4.9,5c11.49,4.4,21.46,1.47,30.38-6.3,10.37-9,17.14-20.87,24.75-32.06,5.31-7.81,10.18-16,17.76-22,4.23-3.34,5.31-3,6.8,2.32a14.71,14.71,0,0,1-1.79,12.25c-11,17-14.51,36.59-18.84,55.81a207.51,207.51,0,0,0-5.07,48.11,146.68,146.68,0,0,0,2.38,24.08c.48,2.69,1.33,2.64,3.33,1.6,6.67-3.51,11-9.13,14.51-15.59,5.81-10.76,9.24-22.57,14.69-33.49,1.28-2.55,2.94-4.9,4.25-7.44,1-1.86,1.84-1.85,3.4-.63a22.54,22.54,0,0,1,9.1,18.73c0,7.1-.51,14.2-.69,21.3-.21,8.18,2.89,14.83,9.72,19.46,1.83,1.24,1.78,2.09.64,3.69a82,82,0,0,0-4.8,7.56c-1,1.71-1.84,1.83-3.55,1C390.64,605.72,383.83,599.37,380.74,588.79Z" style="fill:#010101"/><path d="M987.87,510c-4.26,4.36-7.63,8.76-9.59,14.1-3.1,8.46-1.08,16.65,1.24,24.83.17.6.41,1.18.55,1.78.53,2.37,2.73,5,1.48,7-1.88,2.87-5.36,4.33-8.8,5.22-9,2.33-17.14-.45-24.56-5-4-2.42-6.55-1.83-9.47.91-4.27,4-8.36,8.24-12.83,12-6.62,5.6-10.84,4-12.87-4.44-.52-2.18-1.07-4.4-3.42-5.81-4,5.94-8,12-12.16,17.84-5.58,7.83-11.46,15.43-20.52,19.62-8,3.68-15.53,2.17-22.8-2.11-1.36-.8-1.54-2.11-1.76-3.49-1.59-10.18,1.09-19.52,5.7-28.44a46.44,46.44,0,0,1,5.42-8.9c5-5.86,3.69-11.63.38-17.46-1.77-3.13-3.93-6-5.83-9.11-2.91-4.68-4.41-9.68-3.44-15.28.24-1.38.49-2.27,2-2.62,11.66-2.56,19-10.83,25.72-19.81a44.94,44.94,0,0,0,8.74-20.35c1.3-8.68-1.71-12.46-10.42-11.79-15.77,1.2-28.55,8-37.59,21.24-3.46,5.08-4.35,10.39-2.12,16.3,1.52,4,3.06,8.15,1.17,12.64-1,2.31-1.57,3-3.7.89-9.35-9.11-11.47-22.14-4.51-34.26,9.46-16.47,23.65-26.64,42.64-29.44a25.18,25.18,0,0,1,17.57,3.6c6.67,4.23,9.53,10.71,8.23,18.53-1.71,10.23-7,18.82-12.69,27.14-5.36,7.77-10.92,15.42-16.58,23-1.67,2.23-1.56,2.75,1.21,3.49,19.24,5.15,37.47,1.82,55.16-6.26,3.39-1.55,6.71-3.26,10-5.06a3.51,3.51,0,0,1,4.06.2c8,4.91,10.95,11.93,8.67,21-.33,1.32-.71,2.63-1.17,3.91-2.27,6.35-1.82,7.5,4.38,10.71,1.77.92,3.66,1.62,5.33,2.69,3.09,2,3.45.3,3.45-2.28a104.38,104.38,0,0,1,1.53-19.33,48.84,48.84,0,0,1,2.36-8.61C971.27,510.4,978.72,507,987.87,510Zm-83.25,34.56c-.18-1.27-.36-3-.69-4.71-.52-2.63-1.48-3.37-4.16-1.64-7.32,4.73-14.6,9.55-21,15.44-7.76,7.15-14.71,15-16,26.17-.39,3.27-.68,7.33,1.57,9.15,2.46,2,6.21.07,9.15-1.36,9.56-4.64,16.68-12,22.64-20.6C900.67,560.41,904.2,553.34,904.63,544.58Zm24.6,3.42c6.36-4.86,10.3-10.84,10.88-18.76.22-3-.71-6.27-3.51-7.2-2.63-.87-4.72,1.89-6.09,4C926,532.92,926,540.21,929.23,548Z" style="fill:#020202"/><path d="M119.62,621.85c18.21-73.74,36.52-147.32,58.33-221.08a42.69,42.69,0,0,1,3,20.52c-1.09,12.55-5.66,24.16-9.62,35.95-7.41,22.08-12.28,44.81-17.17,67.53-8.13,37.83-14.66,76-23.47,113.67-1.89,8.09-4,16.13-6,24.11-1.43.31-1.63-.73-2.06-1.39C112.88,646.21,108,629.41,106.3,612,101.35,562.54,90.08,514.46,76,466.93c-1.84-6.19-3.6-12.41-5.56-18.57-.82-2.59-.46-4.27,2.35-5,2.47-.68,4.43-.93,5.66,2.19a353.08,353.08,0,0,1,15,48.8c6.12,25.93,10.08,52.27,14.93,78.43C111.38,589.23,114.64,605.68,119.62,621.85Z" style="fill:#010101"/><path d="M1003.13,546.64c-.14-6,1.27-11.85,2.36-17.71.21-1.13,1-2.29-.76-3.13s-2.51.31-3.44,1.27a13.6,13.6,0,0,0-.94,1.16c-1.35,1.74-2.39,4.27-5,3.8-2.46-.43-3.2-3-4.1-5-1.66-3.71-.87-7.3.9-10.78a41.23,41.23,0,0,1,8.19-10.58c8.41-8.23,13.39-18.44,17.87-29,4.4-10.4,8.25-21.07,14.85-30.4a39.66,39.66,0,0,1,8.31-8.54c2.08-1.6,3.37-2,4.09,1.4,1.94,9.18-1.18,17.11-5.46,24.84-5.12,9.24-11.58,17.72-15.59,27.58-7.77,19.1-12.06,38.91-11.86,59.61,0,4,.7,4.51,4.65,3.75,4.38-.85,7-4,9.39-7.41,3.72-5.31,6.33-11.27,9.6-16.84,5.36-9.16,6.6-9.2,13-.75,5,6.65,6.19,13.72,2.63,21.39-1.67,3.6-2.72,3.91-5.74,1.17a56.67,56.67,0,0,1-4.79-5.64c-1.58-1.87-2.68-1.54-3.71.64-4.84,10.18-13.54,16.31-22.89,21.78-1.59.93-2.44.37-3.5-.74C1005.23,562.35,1002.89,555,1003.13,546.64Z" style="fill:#020202"/><path d="M217.26,648.36c-4.62-6.77-6.93-14.31-8.33-22.14-2-11.08-2-22.3-1.9-33.51.1-12.73-.32-25.38-4.29-37.63-1.62-5,2.43-12.1,7.61-13.55,1.77-.5,2.21.86,2.9,1.69,6.1,7.26,8.71,16,9,25.15.47,17.68,2,35.3,2.37,53A48.17,48.17,0,0,1,217.26,648.36Z" style="fill:#010101"/><path d="M940.38,471.73c4.34.41,9.53,1,14.73,1.37,2.33.17,2.4,1,1.33,2.75-2.56,4.17-6.41,6.42-11,7.71A29.92,29.92,0,0,1,922,481.13c-2.52-1.38-2.95-2.55-.23-4.43C927.19,473,933.23,472,940.38,471.73Z" style="fill:#020202"/><path d="M387.38,499.73c.06-5.78,3.52-9,9.51-8.81,5.3.15,9.08,3.55,9.17,8.25.1,5.4-5.16,10.17-11.15,10.13C390.27,509.26,387.32,505.51,387.38,499.73Z" style="fill:#020202"/><path d="M205.4,489.3c2.38,1.48,4.79,3,7.19,4.49,4.72,3,4.92,3.14,1.69,7.63-1.65,2.29-2,7.09-5.43,6.24-2.91-.73-5.92-.3-8.68-1.42-2.58-1-4.14-2.69-3.67-5.69a14.13,14.13,0,0,1,6.67-10.28A16.92,16.92,0,0,1,205.4,489.3Z" style="fill:#020202"/><path d="M1045.51,490.44c-.27,2-.16,4.55-3.79,4.26-3.2-.25-6.56-2.91-6.61-5.49,0-2.26,3.13-5.13,5.58-5C1043.68,484.28,1045.57,486.59,1045.51,490.44Z" style="fill:#020202"/><path d="M507.5,505.17c5.11,2.15,10.2,4.35,15.33,6.44,7.17,2.93,14.57,5.39,21.51,8.78,5.24,2.56,10.67,4.85,16,6.93,9.24,3.61,18.26,7.8,27.65,11.06,5,1.74,9.72,4.45,14.67,6.48,5.93,2.43,12,4.49,18,6.91,5.06,2.06,10,4.5,15,6.61,8,3.36,16.19,6.38,24.1,10,2.74,1.24,5.82,1.88,8.23,4,.73.64,2.35.27,3.57.37l.19,1.41c-1.56,12-3,24-4.73,35.94-1.61,11-3.19,22-2.77,33.19-1.14,1.15-2.59.7-3.92.7-10.37,0-20.74,0-31.11,0-1.32,0-2.77-.47-4,.58-10.22,0-20.44.13-30.66.12-2.5,0-5,0-7.08,1.52a8.89,8.89,0,0,1-6.34,1.43c-9.1-.77-17.25,2.64-25.56,5.64-6.64,2.4-13.19,5-20.15,6.61-3.49.8-7.46,1.4-10.21,4.34-9.84-15.87-15.58-33.28-18.52-51.56-3.85-24-3.59-48.1-2.38-72.26A350.83,350.83,0,0,1,507.5,505.17Z" style="fill:#b0a1ca"/><path d="M679.25,485.54a4.78,4.78,0,0,1-1.88-5.32c.59-2.83.12-5.89.11-8.84.31-8,.46-15.92,1-23.86,1.07-16.86,1.84-33.74,3.66-50.55.86-7.9,1.4-15.84,2.89-23.66,2.8.41,4.9,2.22,7.16,3.66,22.52,14.38,37.68,34.89,48.3,59,9.32,21.13,14.38,43.36,16.89,66.32,1.1,10,2.39,20,1.86,30.08-2.37,0-4.24-1.37-6.17-2.39-11.67-6.18-22.53-13.68-33.38-21.16-7.2-5-15.37-8.43-22.06-14.11A39.85,39.85,0,0,0,679.25,485.54Z" style="fill:#2ab3b7"/><path d="M671.71,574.11c4.21.9,8,2.88,11.92,4.55,10.59,4.52,21.27,8.83,31.73,13.63s21.58,8.86,31.83,14.48c1.46.8,3.59,0,4.64,1.85a189.75,189.75,0,0,1-13.17,42.91,5.56,5.56,0,0,0-3.57-2.4,112.4,112.4,0,0,0-26.64-2.21,12.49,12.49,0,0,1-6.12-1.34,13.83,13.83,0,0,0-6.43-1.57c-10.58,0-21.12-1.39-31.7-.77-.42-11.18,1.16-22.18,2.77-33.19C668.72,598.09,670.14,586.09,671.71,574.11Z" style="fill:#f0a8be"/></svg>